<?xml version="1.0" ?><!-- Uploaded to: SVG Repo, www.svgrepo.com, Generator: SVG Repo Mixer Tools -->
<svg fill="#000000" width="800px" height="800px" viewBox="0 0 32 32" id="OBJECT" xmlns="http://www.w3.org/2000/svg"><title/><path d="M12.67,9.67h6.66A7.68,7.68,0,0,0,27,2a1,1,0,0,0-1-1H22.67A7.66,7.66,0,0,0,16,4.9,7.66,7.66,0,0,0,9.33,1H6A1,1,0,0,0,5,2,7.68,7.68,0,0,0,12.67,9.67Z"/><path d="M17,16.67v-5H15v5a1,1,0,0,0,2,0Z"/><path d="M12,19a4.14,4.14,0,0,0-4.91-.64V14.09A5.1,5.1,0,0,0,2,9a1,1,0,0,0-1,1V21.75a3.06,3.06,0,0,0,1.18,2.41l1.71,1.32a3.06,3.06,0,0,1,1.19,2.44V30a1,1,0,0,0,1,1h8.3a1,1,0,0,0,1-1V23.63a3.05,3.05,0,0,0-.89-2.15Z"/><path d="M30,9a5.1,5.1,0,0,0-5.09,5.09v4.27A4.05,4.05,0,0,0,20,19l-2.49,2.48a3.05,3.05,0,0,0-.89,2.15V30a1,1,0,0,0,1,1h8.3a1,1,0,0,0,1-1V27.92a3.06,3.06,0,0,1,1.19-2.44l1.71-1.32A3.06,3.06,0,0,0,31,21.75V10A1,1,0,0,0,30,9Z"/></svg>