<svg width="36" height="36" viewBox="0 0 36 36" fill="none" xmlns="http://www.w3.org/2000/svg">
<path d="M18 14.28C17.2643 14.28 16.545 14.4982 15.9333 14.9069C15.3215 15.3157 14.8447 15.8967 14.5632 16.5764C14.2816 17.2562 14.2079 18.0041 14.3515 18.7257C14.495 19.4473 14.8493 20.1102 15.3696 20.6304C15.8898 21.1507 16.5527 21.505 17.2743 21.6485C17.9959 21.7921 18.7438 21.7184 19.4236 21.4368C20.1033 21.1553 20.6843 20.6785 21.0931 20.0667C21.5018 19.455 21.72 18.7357 21.72 18C21.72 17.5115 21.6238 17.0277 21.4368 16.5764C21.2499 16.1251 20.9759 15.715 20.6304 15.3696C20.285 15.0241 19.8749 14.7501 19.4236 14.5632C18.9723 14.3762 18.4885 14.28 18 14.28ZM32.895 10.605C32.8871 9.44664 32.6738 8.29886 32.265 7.215C31.9639 6.42189 31.4981 5.70164 30.8982 5.10178C30.2984 4.50192 29.5781 4.03608 28.785 3.735C27.7011 3.3262 26.5534 3.11289 25.395 3.105C23.46 3 22.89 3 18 3C13.11 3 12.54 3 10.605 3.105C9.44664 3.11289 8.29886 3.3262 7.215 3.735C6.42189 4.03608 5.70164 4.50192 5.10178 5.10178C4.50192 5.70164 4.03608 6.42189 3.735 7.215C3.3262 8.29886 3.11289 9.44664 3.105 10.605C3 12.54 3 13.11 3 18C3 22.89 3 23.46 3.105 25.395C3.12115 26.5574 3.33416 27.7087 3.735 28.8C4.03474 29.5895 4.50019 30.3056 5.1 30.9C5.69729 31.5035 6.41908 31.9693 7.215 32.265C8.29886 32.6738 9.44664 32.8871 10.605 32.895C12.54 33 13.11 33 18 33C22.89 33 23.46 33 25.395 32.895C26.5534 32.8871 27.7011 32.6738 28.785 32.265C29.5809 31.9693 30.3027 31.5035 30.9 30.9C31.4998 30.3056 31.9653 29.5895 32.265 28.8C32.6734 27.7108 32.8867 26.5582 32.895 25.395C33 23.46 33 22.89 33 18C33 13.11 33 12.54 32.895 10.605ZM29.085 22.605C29.0369 23.5307 28.8393 24.4424 28.5 25.305C28.2088 26.0245 27.7759 26.6782 27.227 27.227C26.6782 27.7759 26.0245 28.2088 25.305 28.5C24.4343 28.8204 23.5174 28.9977 22.59 29.025H13.41C12.4826 28.9977 11.5657 28.8204 10.695 28.5C9.95115 28.2236 9.27942 27.7826 8.73 27.21C8.1865 26.6719 7.76677 26.0218 7.5 25.305C7.17834 24.4352 7.00591 23.5173 6.99 22.59V13.41C7.00591 12.4827 7.17834 11.5648 7.5 10.695C7.77642 9.95115 8.21741 9.27942 8.79 8.73C9.3305 8.18944 9.9799 7.77014 10.695 7.5C11.5657 7.17961 12.4826 7.00231 13.41 6.975H22.59C23.5174 7.00231 24.4343 7.17961 25.305 7.5C26.0488 7.77642 26.7206 8.21741 27.27 8.79C27.8135 9.32812 28.2332 9.9782 28.5 10.695C28.8204 11.5657 28.9977 12.4826 29.025 13.41V18C29.025 21.09 29.13 21.405 29.085 22.59V22.605ZM26.685 11.445C26.5064 10.9605 26.2248 10.5205 25.8597 10.1553C25.4945 9.79018 25.0545 9.50859 24.57 9.33C23.9047 9.09939 23.204 8.98769 22.5 9H13.5C12.7924 9.00692 12.0916 9.13895 11.43 9.39C10.9529 9.56048 10.5175 9.83057 10.1529 10.1823C9.78821 10.534 9.50259 10.9594 9.315 11.43C9.09717 12.0981 8.99074 12.7974 9 13.5V22.5C9.01487 23.2068 9.14665 23.9062 9.39 24.57C9.5686 25.0545 9.85018 25.4945 10.2153 25.8597C10.5805 26.2248 11.0205 26.5064 11.505 26.685C12.145 26.9204 12.8185 27.052 13.5 27.075H22.5C23.2076 27.0681 23.9084 26.9361 24.57 26.685C25.0545 26.5064 25.4945 26.2248 25.8597 25.8597C26.2248 25.4945 26.5064 25.0545 26.685 24.57C26.9361 23.9084 27.0681 23.2076 27.075 22.5V13.5C27.0754 12.7917 26.9432 12.0896 26.685 11.43V11.445ZM18 23.73C17.2482 23.73 16.5038 23.5817 15.8095 23.2935C15.1151 23.0054 14.4845 22.5831 13.9536 22.0508C13.4227 21.5185 13.002 20.8868 12.7157 20.1916C12.4294 19.4965 12.283 18.7518 12.285 18C12.285 16.8661 12.6214 15.7576 13.2517 14.815C13.882 13.8724 14.7778 13.138 15.8257 12.7048C16.8736 12.2715 18.0265 12.1589 19.1384 12.3812C20.2503 12.6035 21.2713 13.1508 22.072 13.9536C22.8728 14.7565 23.4173 15.7789 23.6367 16.8914C23.8561 18.0039 23.7405 19.1564 23.3045 20.2032C22.8685 21.2499 22.1318 22.1438 21.1875 22.7716C20.2432 23.3994 19.1339 23.733 18 23.73ZM24 13.395C23.6684 13.3599 23.3615 13.2033 23.1385 12.9555C22.9155 12.7076 22.7921 12.3859 22.7921 12.0525C22.7921 11.7191 22.9155 11.3974 23.1385 11.1495C23.3615 10.9017 23.6684 10.7451 24 10.71C24.3316 10.7451 24.6385 10.9017 24.8615 11.1495C25.0845 11.3974 25.2079 11.7191 25.2079 12.0525C25.2079 12.3859 25.0845 12.7076 24.8615 12.9555C24.6385 13.2033 24.3316 13.3599 24 13.395Z" fill="white"/>
</svg>
