<svg width="28" height="28" viewBox="0 0 28 28" fill="none" xmlns="http://www.w3.org/2000/svg">
<path d="M24.5 0.5C25.2956 0.5 26.0587 0.81607 26.6213 1.37868C27.1839 1.94129 27.5 2.70435 27.5 3.5V24.5C27.5 25.2956 27.1839 26.0587 26.6213 26.6213C26.0587 27.1839 25.2956 27.5 24.5 27.5H3.5C2.70435 27.5 1.94129 27.1839 1.37868 26.6213C0.81607 26.0587 0.5 25.2956 0.5 24.5V3.5C0.5 2.70435 0.81607 1.94129 1.37868 1.37868C1.94129 0.81607 2.70435 0.5 3.5 0.5H24.5ZM23.75 23.75V15.8C23.75 14.5031 23.2348 13.2593 22.3178 12.3422C21.4007 11.4252 20.1569 10.91 18.86 10.91C17.585 10.91 16.1 11.69 15.38 12.86V11.195H11.195V23.75H15.38V16.355C15.38 15.2 16.31 14.255 17.465 14.255C18.022 14.255 18.5561 14.4762 18.9499 14.8701C19.3438 15.2639 19.565 15.798 19.565 16.355V23.75H23.75ZM6.32 8.84C6.98835 8.84 7.62932 8.5745 8.10191 8.10191C8.5745 7.62932 8.84 6.98835 8.84 6.32C8.84 4.925 7.715 3.785 6.32 3.785C5.64768 3.785 5.00289 4.05208 4.52748 4.52748C4.05208 5.00289 3.785 5.64768 3.785 6.32C3.785 7.715 4.925 8.84 6.32 8.84ZM8.405 23.75V11.195H4.25V23.75H8.405Z" fill="white"/>
</svg>
