<svg width="30" height="30" viewBox="0 0 30 30" fill="none" xmlns="http://www.w3.org/2000/svg">
<path d="M25.575 4.36509C24.1998 2.97598 22.5617 1.87459 20.7564 1.12517C18.9511 0.375741 17.0146 -0.00672017 15.06 8.93544e-05C6.86995 8.93544e-05 0.194951 6.67509 0.194951 14.8651C0.194951 17.4901 0.884951 20.0401 2.17495 22.2901L0.0749512 30.0001L7.94995 27.9301C10.125 29.1151 12.57 29.7451 15.06 29.7451C23.25 29.7451 29.925 23.0701 29.925 14.8801C29.925 10.9051 28.38 7.17009 25.575 4.36509ZM15.06 27.2251C12.84 27.2251 10.665 26.6251 8.75995 25.5001L8.30995 25.2301L3.62995 26.4601L4.87495 21.9001L4.57495 21.4351C3.34157 19.4655 2.68666 17.189 2.68495 14.8651C2.68495 8.05509 8.23495 2.50509 15.045 2.50509C18.3449 2.50509 21.45 3.79509 23.775 6.13509C24.9262 7.28103 25.8385 8.64408 26.459 10.1452C27.0796 11.6464 27.396 13.2558 27.39 14.8801C27.42 21.6901 21.87 27.2251 15.06 27.2251ZM21.84 17.9851C21.465 17.8051 19.635 16.9051 19.305 16.7701C18.96 16.6501 18.72 16.5901 18.465 16.9501C18.21 17.3251 17.5049 18.1651 17.295 18.4051C17.085 18.6601 16.86 18.6901 16.485 18.4951C16.11 18.3151 14.91 17.9101 13.5 16.6501C12.39 15.6601 11.655 14.4451 11.43 14.0701C11.22 13.6951 11.4 13.5001 11.5949 13.3051C11.76 13.1401 11.97 12.8701 12.15 12.6601C12.33 12.4501 12.405 12.2851 12.525 12.0451C12.645 11.7901 12.585 11.5801 12.495 11.4001C12.405 11.2201 11.655 9.39009 11.3549 8.64009C11.055 7.92009 10.74 8.01009 10.515 7.99509H9.79495C9.53995 7.99509 9.14995 8.08509 8.80495 8.46009C8.47495 8.83509 7.51495 9.73509 7.51495 11.5651C7.51495 13.3951 8.84995 15.1651 9.02995 15.4051C9.20995 15.6601 11.655 19.4101 15.375 21.0151C16.26 21.4051 16.95 21.6301 17.49 21.7951C18.375 22.0801 19.185 22.0351 19.83 21.9451C20.55 21.8401 22.035 21.0451 22.3349 20.1751C22.65 19.3051 22.65 18.5701 22.545 18.4051C22.44 18.2401 22.215 18.1651 21.84 17.9851Z" fill="white"/>
</svg>
